<svg xmlns="http://www.w3.org/2000/svg" xml:space="preserve" viewBox="0 0 200 29" version="1.1" y="0" x="0"><style type="text/css">
	.st0{fill:#FFFFFF;}
</style><path d="m13.4 0l11.3 28.6h-1.9l-3.6-9.2h-13.7l-3.6 9.2h-1.9l11.5-28.6h1.9zm5.2 17.9l-6.1-16.2h-0.1l-6.3 16.2h12.5zM51.9 0h1.8v28.6h-1.8v-28.6zM81.8 0h2l9 12.6 9.2-12.6h2l-9.9 13.9 10.6 14.7h-2.1l-9.7-13.4-9.7 13.4h-2.1l10.7-14.7-10.4-13.9zM130 0h2l9 12.6 9-12.6h2l-10 13.9 10.6 14.7h-2.1l-9.7-13.4-9.7 13.4h-2l10.7-14.7-10-13.9zM198 27v-12.5h-16.4v-1.5h16.4v-11.5h-17.4v-1.5h19v28.6h-19.4v-1.6h17z" class="st0"/></svg>